<svg width="20" height="20" viewBox="0 0 20 20" fill="none" xmlns="http://www.w3.org/2000/svg">
  <path d="M15.8325 11.6152L15.6739 11.4565C15.3448 11.1275 15.0702 10.8529 14.8271 10.648C14.5734 10.4341 14.3111 10.2582 13.9953 10.1629C13.5636 10.0327 13.1031 10.0327 12.6714 10.1629C12.3555 10.2582 12.0933 10.4341 11.8396 10.648C11.5964 10.8529 11.3218 11.1275 10.9928 11.4565L10.974 11.4753C10.7213 11.728 10.5627 11.8857 10.4365 11.99C10.3594 12.0539 10.3206 12.0747 10.3094 12.08C10.2641 12.0862 10.2179 12.0774 10.1782 12.0548C10.1697 12.0456 10.1415 12.0119 10.0935 11.924C10.0152 11.7803 9.92644 11.575 9.78564 11.2464L9.72671 11.1089C9.42663 10.4087 9.18136 9.8364 8.94044 9.40829C8.69388 8.97015 8.40293 8.59008 7.96482 8.37045C7.58763 8.18136 7.16555 8.10008 6.74511 8.13556C6.25676 8.17677 5.84547 8.4216 5.45382 8.73683C5.08893 9.03052 4.67166 9.4445 4.16667 9.94935V10.8332C4.16667 11.1485 4.1668 11.442 4.16778 11.716L4.95018 10.9336C5.52108 10.3627 5.91385 9.97115 6.23759 9.71059C6.55847 9.45232 6.7312 9.39118 6.85022 9.38113C7.04133 9.365 7.23318 9.40195 7.40463 9.4879C7.51141 9.54143 7.64908 9.66235 7.85109 10.0213C8.0549 10.3835 8.27416 10.8929 8.5922 11.635L8.64774 11.7646C8.77413 12.0595 8.88593 12.3205 8.99616 12.5225C9.11057 12.7323 9.26439 12.9594 9.51357 13.1136C9.81784 13.302 10.1807 13.3719 10.5332 13.31C10.8218 13.2593 11.049 13.1056 11.2331 12.9533C11.4105 12.8066 11.6112 12.6059 11.8381 12.379L11.8579 12.3592C12.2106 12.0066 12.4476 11.7702 12.6451 11.6038C12.8366 11.4424 12.9474 11.3853 13.0325 11.3597C13.2287 11.3005 13.438 11.3005 13.6342 11.3597C13.7193 11.3853 13.83 11.4424 14.0215 11.6038C14.219 11.7702 14.4561 12.0066 14.8087 12.3592L15.802 13.3525C15.824 12.8721 15.8306 12.304 15.8325 11.6152Z" fill="white"/>
  <path fill-rule="evenodd" clip-rule="evenodd" d="M9.11965 1.875H10.8803C12.4118 1.87499 13.6248 1.87498 14.5742 2.00261C15.5512 2.13397 16.342 2.41073 16.9656 3.03437C17.5893 3.65801 17.866 4.4488 17.9974 5.42581C18.125 6.37516 18.125 7.58819 18.125 9.11966V10.8803C18.125 12.4118 18.125 13.6248 17.9974 14.5742C17.866 15.5512 17.5893 16.342 16.9656 16.9656C16.342 17.5893 15.5512 17.866 14.5742 17.9974C13.6248 18.125 12.4118 18.125 10.8803 18.125H9.11966C7.58819 18.125 6.37516 18.125 5.42581 17.9974C4.4488 17.866 3.65801 17.5893 3.03437 16.9656C2.41073 16.342 2.13397 15.5512 2.00261 14.5742C1.87498 13.6248 1.87499 12.4118 1.875 10.8803V9.11965C1.87499 7.58819 1.87498 6.37516 2.00261 5.42581C2.13397 4.4488 2.41073 3.65801 3.03437 3.03437C3.65801 2.41073 4.4488 2.13397 5.42581 2.00261C6.37516 1.87498 7.58819 1.87499 9.11965 1.875ZM5.59237 3.24147C4.75397 3.35419 4.27093 3.56558 3.91825 3.91825C3.56558 4.27093 3.35419 4.75397 3.24147 5.59237C3.12633 6.44876 3.125 7.57765 3.125 9.16667V10.8333C3.125 12.4224 3.12633 13.5512 3.24147 14.4076C3.35419 15.246 3.56558 15.7291 3.91825 16.0817C4.27093 16.4344 4.75397 16.6458 5.59237 16.7585C6.44876 16.8737 7.57765 16.875 9.16667 16.875H10.8333C12.4224 16.875 13.5512 16.8737 14.4076 16.7585C15.246 16.6458 15.7291 16.4344 16.0817 16.0817C16.4344 15.7291 16.6458 15.246 16.7585 14.4076C16.8737 13.5512 16.875 12.4224 16.875 10.8333V9.16667C16.875 7.57765 16.8737 6.44876 16.7585 5.59237C16.6458 4.75397 16.4344 4.27093 16.0817 3.91825C15.7291 3.56558 15.246 3.35419 14.4076 3.24147C13.5512 3.12633 12.4224 3.125 10.8333 3.125H9.16667C7.57765 3.125 6.44876 3.12633 5.59237 3.24147Z" fill="white"/>
  <path d="M15 6.25C15 6.94036 14.4404 7.5 13.75 7.5C13.0596 7.5 12.5 6.94036 12.5 6.25C12.5 5.55964 13.0596 5 13.75 5C14.4404 5 15 5.55964 15 6.25Z" fill="white"/>
</svg>
