<svg preserveAspectRatio="none" width="100%" height="100%" overflow="visible" style="display: block;" viewBox="0 0 164.465 44" fill="none" xmlns="http://www.w3.org/2000/svg">
<g id="Container">
<g id="Vector">
<path fill-rule="evenodd" clip-rule="evenodd" d="M38.7555 25.6827C34.1584 22.9571 22.9685 17.249 9.57547 17.0319C7.11556 16.9921 4.58135 17.1374 2 17.5205C2 17.5205 5.38377 19.3899 8.03491 23.1288C8.03491 23.1288 21.3953 21.7013 32.4535 25.0322C32.4535 25.0322 22.093 22.381 8.80233 24.1485C9.70932 25.2362 3.11629 32 3.11629 32C3.11629 32 12.3256 23.7746 41 27.1055C41 27.1055 40.2059 26.5425 38.7555 25.6827Z" fill="url(#paint0_linear_0_4)"/>
<path fill-rule="evenodd" clip-rule="evenodd" d="M9.57547 17.0319C22.9685 17.249 34.1584 22.9571 38.7555 25.6827L38.0698 24.1145C37.7979 23.9017 37.5237 23.6934 37.2476 23.4893C28.0832 16.7183 16.7329 14.7133 13.1102 14.2248C12.3606 14.1238 11.9419 14.0876 11.9419 14.0876L9.57547 17.0319Z" fill="url(#paint1_linear_0_4)"/>
<path fill-rule="evenodd" clip-rule="evenodd" d="M13.1102 14.2248C16.7329 14.7133 28.0832 16.7183 37.2476 23.4893L37.5465 22.9589C36.164 21.9474 34.7609 21.0297 33.3667 20.1985C30.8994 18.7277 28.4598 17.5279 26.2106 16.5596C24.9514 16.0175 23.7519 15.5479 22.6406 15.144C21.2557 14.6405 20.0078 14.239 18.9524 13.926C16.7299 13.2668 15.3605 13 15.3605 13L13.1102 14.2248Z" fill="url(#paint2_linear_0_4)"/>
<path fill-rule="evenodd" clip-rule="evenodd" d="M26.2106 16.5596C28.4598 17.5279 30.8994 18.7277 33.3667 20.1985L33.6395 19.9678C31.4591 18.5118 28.7987 17.0818 26.4946 15.9332L26.2106 16.5596Z" fill="url(#paint3_linear_0_4)"/>
<path fill-rule="evenodd" clip-rule="evenodd" d="M26.2106 16.5596L26.4946 15.9332C25.4458 15.4103 24.4708 14.9458 23.6484 14.5638L22.6406 15.144C23.7519 15.5479 24.9514 16.0175 26.2106 16.5596Z" fill="url(#paint4_linear_0_4)"/>
<path fill-rule="evenodd" clip-rule="evenodd" d="M22.6406 15.144L23.6484 14.5638C22.1444 13.8649 21.1512 13.4418 21.1512 13.4418L18.9524 13.926C20.0078 14.239 21.2557 14.6405 22.6406 15.144Z" fill="url(#paint5_linear_0_4)"/>
<path fill-rule="evenodd" clip-rule="evenodd" d="M38.5747 25.2691C26.627 17.6662 10.0107 16.4904 10.0107 16.4904L9.57547 17.0319C22.9685 17.249 34.1584 22.9571 38.7555 25.6827L38.5747 25.2691Z" fill="#001529"/>
<path fill-rule="evenodd" clip-rule="evenodd" d="M37.3971 23.2241C27.8666 16.1687 13.7381 13.8831 13.7381 13.8831L13.1102 14.2248C16.7329 14.7133 28.0832 16.7183 37.2476 23.4893L37.3971 23.2241Z" fill="#001529"/>
<path fill-rule="evenodd" clip-rule="evenodd" d="M22.9018 14.9936C20.8824 14.2143 19.5541 13.7935 19.5541 13.7935L18.9524 13.926C20.0078 14.239 21.2557 14.6405 22.6406 15.144L22.9018 14.9936Z" fill="#001529"/>
<path fill-rule="evenodd" clip-rule="evenodd" d="M22.9018 14.9936L22.6406 15.144C23.7519 15.5479 24.9514 16.0175 26.2106 16.5596C28.4598 17.5279 30.8994 18.7277 33.3667 20.1985L33.5031 20.0831C31.0959 18.6227 28.5431 17.3764 26.2885 16.3878C25.0438 15.8421 23.89 15.3749 22.9018 14.9936Z" fill="#001529"/>
<path d="M42 22C42 10.9543 33.0457 2 22 2C10.9543 2 2 10.9543 2 22C2 33.0457 10.9543 42 22 42V44C9.84974 44 0 34.1503 0 22C0 9.84974 9.84974 0 22 0C34.1503 0 44 9.84974 44 22C44 34.1503 34.1503 44 22 44V42C33.0457 42 42 33.0457 42 22Z" fill="url(#paint6_linear_0_4)"/>
</g>
<g id="CHAO PHRAYA">
<path d="M56.228 20.956C55.064 20.956 54.008 20.722 53.06 20.254C52.124 19.774 51.38 19.066 50.828 18.13C50.276 17.194 50 16.048 50 14.692C50 13.66 50.168 12.754 50.504 11.974C50.84 11.194 51.296 10.54 51.872 10.012C52.46 9.48396 53.132 9.08796 53.888 8.82396C54.656 8.55996 55.466 8.42796 56.318 8.42796C57.002 8.42796 57.632 8.50596 58.208 8.66196C58.784 8.81796 59.324 9.03396 59.828 9.30996L59.9 11.524H59.72L58.82 10.084C58.7 9.85596 58.568 9.65196 58.424 9.47196C58.28 9.27996 58.1 9.13596 57.884 9.03996C57.704 8.95596 57.524 8.89596 57.344 8.85996C57.176 8.81196 56.96 8.78796 56.696 8.78796C56 8.78796 55.364 8.97396 54.788 9.34596C54.224 9.71796 53.768 10.336 53.42 11.2C53.084 12.052 52.916 13.222 52.916 14.71C52.916 16.186 53.078 17.356 53.402 18.22C53.726 19.072 54.164 19.684 54.716 20.056C55.28 20.416 55.91 20.596 56.606 20.596C56.99 20.596 57.296 20.572 57.524 20.524C57.752 20.464 57.98 20.38 58.208 20.272C58.436 20.176 58.61 20.038 58.73 19.858C58.85 19.666 58.958 19.462 59.054 19.246L59.846 17.482H60.026L59.972 20.056C59.468 20.32 58.904 20.536 58.28 20.704C57.656 20.872 56.972 20.956 56.228 20.956Z" fill="var(--fill-0, white)"/>
<path d="M60.8817 20.632V20.452L61.2417 20.308C61.4817 20.224 61.6377 20.11 61.7097 19.966C61.7937 19.822 61.8357 19.636 61.8357 19.408V9.99396C61.8357 9.75396 61.7937 9.56196 61.7097 9.41796C61.6377 9.27396 61.4817 9.15996 61.2417 9.07596L60.8817 8.93196V8.75196H65.4537V8.93196L65.1477 9.05796C64.9197 9.14196 64.7637 9.25596 64.6797 9.39996C64.5957 9.53196 64.5537 9.71796 64.5537 9.95796V14.332H68.8557V9.95796C68.8557 9.71796 68.8137 9.53196 68.7297 9.39996C68.6577 9.25596 68.5017 9.14196 68.2617 9.05796L67.9377 8.93196V8.75196H72.5277V8.93196L72.1677 9.07596C71.9397 9.15996 71.7837 9.27396 71.6997 9.41796C71.6157 9.56196 71.5737 9.75396 71.5737 9.99396V19.408C71.5737 19.636 71.6157 19.822 71.6997 19.966C71.7837 20.11 71.9397 20.224 72.1677 20.308L72.5277 20.452V20.632H67.9377V20.452L68.2617 20.344C68.5017 20.248 68.6577 20.134 68.7297 20.002C68.8137 19.858 68.8557 19.666 68.8557 19.426V14.692H64.5537V19.426C64.5537 19.87 64.7517 20.176 65.1477 20.344L65.4537 20.452V20.632H60.8817Z" fill="var(--fill-0, white)"/>
<path d="M73.075 20.632V20.452L73.525 20.29C73.765 20.194 73.951 20.08 74.083 19.948C74.215 19.804 74.323 19.606 74.407 19.354L78.115 8.71596H79.645L83.299 19.426C83.395 19.69 83.503 19.894 83.623 20.038C83.743 20.17 83.929 20.284 84.181 20.38L84.397 20.452V20.632H79.825V20.452L80.095 20.362C80.347 20.266 80.497 20.134 80.545 19.966C80.605 19.786 80.599 19.576 80.527 19.336L79.681 16.744H75.685L74.821 19.282C74.737 19.546 74.707 19.756 74.731 19.912C74.767 20.068 74.911 20.194 75.163 20.29L75.559 20.452V20.632H73.075ZM75.811 16.384H79.573L77.755 10.786L75.811 16.384Z" fill="var(--fill-0, white)"/>
<path d="M90.1407 20.956C89.4087 20.956 88.7007 20.824 88.0167 20.56C87.3447 20.296 86.7387 19.906 86.1987 19.39C85.6707 18.862 85.2507 18.208 84.9387 17.428C84.6267 16.648 84.4707 15.736 84.4707 14.692C84.4707 13.66 84.6267 12.754 84.9387 11.974C85.2507 11.194 85.6767 10.546 86.2167 10.03C86.7567 9.50196 87.3627 9.10596 88.0347 8.84196C88.7187 8.56596 89.4207 8.42796 90.1407 8.42796C90.8727 8.42796 91.5747 8.55996 92.2467 8.82396C92.9307 9.07596 93.5367 9.46596 94.0647 9.99396C94.6047 10.51 95.0307 11.164 95.3427 11.956C95.6547 12.736 95.8107 13.648 95.8107 14.692C95.8107 15.712 95.6547 16.618 95.3427 17.41C95.0307 18.19 94.6047 18.844 94.0647 19.372C93.5367 19.888 92.9307 20.284 92.2467 20.56C91.5747 20.824 90.8727 20.956 90.1407 20.956ZM90.1407 20.578C90.8007 20.578 91.3347 20.404 91.7427 20.056C92.1507 19.696 92.4447 19.09 92.6247 18.238C92.8167 17.374 92.9127 16.192 92.9127 14.692C92.9127 13.18 92.8167 11.998 92.6247 11.146C92.4447 10.282 92.1507 9.67596 91.7427 9.32796C91.3347 8.96796 90.8007 8.78796 90.1407 8.78796C89.4927 8.78796 88.9647 8.96796 88.5567 9.32796C88.1487 9.67596 87.8487 10.282 87.6567 11.146C87.4767 11.998 87.3867 13.18 87.3867 14.692C87.3867 16.192 87.4767 17.374 87.6567 18.238C87.8487 19.09 88.1487 19.696 88.5567 20.056C88.9647 20.404 89.4927 20.578 90.1407 20.578Z" fill="var(--fill-0, white)"/>
<path d="M100.485 20.632V20.452L100.845 20.326C101.085 20.254 101.241 20.146 101.313 20.002C101.397 19.858 101.439 19.666 101.439 19.426V9.99396C101.439 9.75396 101.397 9.56196 101.313 9.41796C101.229 9.27396 101.067 9.15996 100.827 9.07596L100.485 8.93196V8.75196H104.859C106.647 8.75196 107.937 9.08196 108.729 9.74196C109.533 10.39 109.935 11.248 109.935 12.316C109.935 13 109.767 13.63 109.431 14.206C109.107 14.77 108.567 15.22 107.811 15.556C107.055 15.892 106.035 16.06 104.751 16.06H104.139V19.372C104.139 19.84 104.373 20.146 104.841 20.29L105.381 20.452V20.632H100.485ZM104.139 15.7H104.823C105.411 15.7 105.891 15.604 106.263 15.412C106.635 15.22 106.911 14.884 107.091 14.404C107.271 13.924 107.361 13.258 107.361 12.406C107.361 11.542 107.259 10.87 107.055 10.39C106.863 9.90996 106.575 9.57996 106.191 9.39996C105.807 9.20796 105.327 9.11196 104.751 9.11196H104.139V15.7Z" fill="var(--fill-0, white)"/>
<path d="M110.487 20.632V20.452L110.847 20.308C111.087 20.224 111.243 20.11 111.315 19.966C111.399 19.822 111.441 19.636 111.441 19.408V9.99396C111.441 9.75396 111.399 9.56196 111.315 9.41796C111.243 9.27396 111.087 9.15996 110.847 9.07596L110.487 8.93196V8.75196H115.059V8.93196L114.753 9.05796C114.525 9.14196 114.369 9.25596 114.285 9.39996C114.201 9.53196 114.159 9.71796 114.159 9.95796V14.332H118.461V9.95796C118.461 9.71796 118.419 9.53196 118.335 9.39996C118.263 9.25596 118.107 9.14196 117.867 9.05796L117.543 8.93196V8.75196H122.133V8.93196L121.773 9.07596C121.545 9.15996 121.389 9.27396 121.305 9.41796C121.221 9.56196 121.179 9.75396 121.179 9.99396V19.408C121.179 19.636 121.221 19.822 121.305 19.966C121.389 20.11 121.545 20.224 121.773 20.308L122.133 20.452V20.632H117.543V20.452L117.867 20.344C118.107 20.248 118.263 20.134 118.335 20.002C118.419 19.858 118.461 19.666 118.461 19.426V14.692H114.159V19.426C114.159 19.87 114.357 20.176 114.753 20.344L115.059 20.452V20.632H110.487Z" fill="var(--fill-0, white)"/>
<path d="M122.932 20.632V20.452L123.31 20.326C123.55 20.242 123.706 20.134 123.778 20.002C123.85 19.858 123.886 19.66 123.886 19.408V9.99396C123.886 9.75396 123.85 9.56796 123.778 9.43596C123.718 9.29196 123.574 9.17796 123.346 9.09396L122.932 8.93196V8.75196H128.08C129.496 8.75196 130.582 9.02196 131.338 9.56196C132.094 10.09 132.472 10.828 132.472 11.776C132.472 12.304 132.274 12.832 131.878 13.36C131.482 13.888 130.858 14.296 130.006 14.584L132.508 19.552C132.616 19.756 132.736 19.924 132.868 20.056C133.012 20.176 133.198 20.284 133.426 20.38L133.66 20.47V20.632H130.438L127.774 14.962H126.55V19.408C126.55 19.636 126.586 19.822 126.658 19.966C126.73 20.11 126.88 20.218 127.108 20.29L127.54 20.452V20.632H122.932ZM126.55 14.602H127.414C128.278 14.602 128.902 14.374 129.286 13.918C129.67 13.45 129.862 12.76 129.862 11.848C129.862 10.924 129.682 10.24 129.322 9.79596C128.962 9.33996 128.356 9.11196 127.504 9.11196H126.55V14.602Z" fill="var(--fill-0, white)"/>
<path d="M134.159 20.632V20.452L134.609 20.29C134.849 20.194 135.035 20.08 135.167 19.948C135.299 19.804 135.407 19.606 135.491 19.354L139.199 8.71596H140.729L144.383 19.426C144.479 19.69 144.587 19.894 144.707 20.038C144.827 20.17 145.013 20.284 145.265 20.38L145.481 20.452V20.632H140.909V20.452L141.179 20.362C141.431 20.266 141.581 20.134 141.629 19.966C141.689 19.786 141.683 19.576 141.611 19.336L140.765 16.744H136.769L135.905 19.282C135.821 19.546 135.791 19.756 135.815 19.912C135.851 20.068 135.995 20.194 136.247 20.29L136.643 20.452V20.632H134.159ZM136.895 16.384H140.657L138.839 10.786L136.895 16.384Z" fill="var(--fill-0, white)"/>
<path d="M147.075 20.632V20.452L147.615 20.308C148.035 20.188 148.245 19.888 148.245 19.408V15.988L145.275 9.93996C145.167 9.69996 145.065 9.51996 144.969 9.39996C144.885 9.27996 144.753 9.17796 144.573 9.09396L144.249 8.93196V8.75196H149.073V8.93196L148.749 9.05796C148.485 9.16596 148.341 9.31596 148.317 9.50796C148.293 9.68796 148.341 9.91596 148.461 10.192L150.585 14.908L152.961 10.012C153.057 9.81996 153.093 9.62196 153.069 9.41796C153.057 9.21396 152.931 9.08196 152.691 9.02196L152.439 8.93196V8.75196H154.599V8.93196L154.257 9.05796C154.029 9.14196 153.861 9.26196 153.753 9.41796C153.645 9.56196 153.537 9.74796 153.429 9.97596L150.963 15.16V19.408C150.963 19.648 151.005 19.846 151.089 20.002C151.185 20.146 151.347 20.248 151.575 20.308L152.133 20.452V20.632H147.075Z" fill="var(--fill-0, white)"/>
<path d="M153.143 20.632V20.452L153.593 20.29C153.833 20.194 154.019 20.08 154.151 19.948C154.283 19.804 154.391 19.606 154.475 19.354L158.183 8.71596H159.713L163.367 19.426C163.463 19.69 163.571 19.894 163.691 20.038C163.811 20.17 163.997 20.284 164.249 20.38L164.465 20.452V20.632H159.893V20.452L160.163 20.362C160.415 20.266 160.565 20.134 160.613 19.966C160.673 19.786 160.667 19.576 160.595 19.336L159.749 16.744H155.753L154.889 19.282C154.805 19.546 154.775 19.756 154.799 19.912C154.835 20.068 154.979 20.194 155.231 20.29L155.627 20.452V20.632H153.143ZM155.879 16.384H159.641L157.823 10.786L155.879 16.384Z" fill="var(--fill-0, white)"/>
</g>
<g id="Dinner Cruise">
<path d="M50 35.356V35.236L50.252 35.14C50.508 35.036 50.636 34.832 50.636 34.528V28.264C50.636 27.944 50.508 27.74 50.252 27.652L50 27.556V27.436H53.168C54.016 27.436 54.744 27.596 55.352 27.916C55.968 28.228 56.44 28.68 56.768 29.272C57.104 29.856 57.272 30.56 57.272 31.384C57.272 32.224 57.092 32.94 56.732 33.532C56.372 34.124 55.868 34.576 55.22 34.888C54.58 35.2 53.824 35.356 52.952 35.356H50ZM52.436 35.116H52.952C53.528 35.116 53.992 35.004 54.344 34.78C54.696 34.548 54.952 34.164 55.112 33.628C55.28 33.084 55.364 32.34 55.364 31.396C55.364 30.452 55.28 29.712 55.112 29.176C54.952 28.632 54.7 28.248 54.356 28.024C54.012 27.792 53.56 27.676 53 27.676H52.436V35.116Z" fill="url(#paint7_linear_0_4)"/>
<path d="M59.1973 28.78C58.9253 28.78 58.6933 28.696 58.5013 28.528C58.3173 28.352 58.2253 28.132 58.2253 27.868C58.2253 27.596 58.3173 27.376 58.5013 27.208C58.6933 27.04 58.9253 26.956 59.1973 26.956C59.4693 26.956 59.6973 27.04 59.8813 27.208C60.0653 27.376 60.1573 27.596 60.1573 27.868C60.1573 28.132 60.0653 28.352 59.8813 28.528C59.6973 28.696 59.4693 28.78 59.1973 28.78ZM57.7812 35.356V35.236L57.9493 35.188C58.1093 35.14 58.2172 35.068 58.2732 34.972C58.3372 34.876 58.3693 34.748 58.3693 34.588V30.832C58.3693 30.664 58.3372 30.54 58.2732 30.46C58.2172 30.372 58.1093 30.312 57.9493 30.28L57.7812 30.244V30.124L59.9773 29.416L60.0972 29.536L60.0612 31.24V34.6C60.0612 34.76 60.0893 34.888 60.1453 34.984C60.2093 35.08 60.3172 35.152 60.4692 35.2L60.5893 35.236V35.356H57.7812Z" fill="url(#paint8_linear_0_4)"/>
<path d="M61.1205 35.356V35.236L61.2885 35.188C61.5685 35.108 61.7085 34.912 61.7085 34.6V30.844C61.7085 30.668 61.6805 30.54 61.6245 30.46C61.5685 30.372 61.4605 30.312 61.3005 30.28L61.1205 30.232V30.112L63.1725 29.416L63.2925 29.536L63.3885 30.256C63.6685 30.008 63.9845 29.804 64.3365 29.644C64.6885 29.484 65.0365 29.404 65.3805 29.404C65.9085 29.404 66.3125 29.548 66.5925 29.836C66.8805 30.124 67.0245 30.564 67.0245 31.156V34.612C67.0245 34.924 67.1765 35.12 67.4805 35.2L67.5885 35.236V35.356H64.7565V35.236L64.9125 35.188C65.1925 35.1 65.3325 34.904 65.3325 34.6V30.772C65.3325 30.26 65.0765 30.004 64.5645 30.004C64.2125 30.004 63.8285 30.18 63.4125 30.532V34.612C63.4125 34.924 63.5525 35.12 63.8325 35.2L63.9405 35.236V35.356H61.1205Z" fill="url(#paint9_linear_0_4)"/>
<path d="M68.058 35.356V35.236L68.226 35.188C68.506 35.108 68.646 34.912 68.646 34.6V30.844C68.646 30.668 68.618 30.54 68.562 30.46C68.506 30.372 68.398 30.312 68.238 30.28L68.058 30.232V30.112L70.11 29.416L70.23 29.536L70.326 30.256C70.606 30.008 70.922 29.804 71.274 29.644C71.626 29.484 71.974 29.404 72.318 29.404C72.846 29.404 73.25 29.548 73.53 29.836C73.818 30.124 73.962 30.564 73.962 31.156V34.612C73.962 34.924 74.114 35.12 74.418 35.2L74.526 35.236V35.356H71.694V35.236L71.85 35.188C72.13 35.1 72.27 34.904 72.27 34.6V30.772C72.27 30.26 72.014 30.004 71.502 30.004C71.15 30.004 70.766 30.18 70.35 30.532V34.612C70.35 34.924 70.49 35.12 70.77 35.2L70.878 35.236V35.356H68.058Z" fill="url(#paint10_linear_0_4)"/>
<path d="M78.0075 29.404C78.5275 29.404 78.9715 29.512 79.3395 29.728C79.7075 29.936 79.9875 30.224 80.1795 30.592C80.3795 30.952 80.4795 31.364 80.4795 31.828C80.4795 31.916 80.4755 32.008 80.4675 32.104C80.4595 32.192 80.4435 32.272 80.4195 32.344H76.8435C76.8515 33.208 77.0035 33.832 77.2995 34.216C77.6035 34.592 78.0515 34.78 78.6435 34.78C79.0435 34.78 79.3675 34.716 79.6155 34.588C79.8635 34.46 80.0955 34.272 80.3115 34.024L80.4315 34.132C80.1835 34.572 79.8515 34.916 79.4355 35.164C79.0275 35.412 78.5355 35.536 77.9595 35.536C77.3915 35.536 76.8875 35.416 76.4475 35.176C76.0075 34.928 75.6635 34.576 75.4155 34.12C75.1675 33.664 75.0435 33.12 75.0435 32.488C75.0435 31.832 75.1875 31.276 75.4755 30.82C75.7635 30.356 76.1315 30.004 76.5795 29.764C77.0355 29.524 77.5115 29.404 78.0075 29.404ZM77.9715 29.644C77.7395 29.644 77.5395 29.716 77.3715 29.86C77.2115 29.996 77.0835 30.244 76.9875 30.604C76.8995 30.956 76.8515 31.456 76.8435 32.104H78.8955C78.9755 31.232 78.9435 30.604 78.7995 30.22C78.6555 29.836 78.3795 29.644 77.9715 29.644Z" fill="url(#paint11_linear_0_4)"/>
<path d="M81.0776 35.356V35.236L81.2576 35.188C81.4176 35.14 81.5256 35.068 81.5816 34.972C81.6456 34.876 81.6776 34.752 81.6776 34.6V30.844C81.6776 30.668 81.6456 30.54 81.5816 30.46C81.5256 30.372 81.4176 30.312 81.2576 30.28L81.0776 30.232V30.112L83.1416 29.416L83.2616 29.536L83.3696 30.568V30.664C83.4816 30.44 83.6256 30.236 83.8016 30.052C83.9856 29.86 84.1856 29.704 84.4016 29.584C84.6256 29.464 84.8456 29.404 85.0616 29.404C85.3656 29.404 85.5976 29.488 85.7576 29.656C85.9176 29.824 85.9976 30.036 85.9976 30.292C85.9976 30.564 85.9176 30.776 85.7576 30.928C85.6056 31.072 85.4216 31.144 85.2056 31.144C84.8696 31.144 84.5736 30.976 84.3176 30.64L84.2936 30.616C84.2136 30.504 84.1216 30.444 84.0176 30.436C83.9136 30.42 83.8176 30.468 83.7296 30.58C83.6496 30.652 83.5816 30.74 83.5256 30.844C83.4776 30.94 83.4296 31.052 83.3816 31.18V34.528C83.3816 34.848 83.5216 35.048 83.8016 35.128L84.1856 35.236V35.356H81.0776Z" fill="url(#paint12_linear_0_4)"/>
<path d="M93.1397 35.572C92.3637 35.572 91.6597 35.416 91.0277 35.104C90.4037 34.784 89.9077 34.312 89.5397 33.688C89.1717 33.064 88.9877 32.3 88.9877 31.396C88.9877 30.708 89.0997 30.104 89.3237 29.584C89.5477 29.064 89.8517 28.628 90.2357 28.276C90.6277 27.924 91.0757 27.66 91.5797 27.484C92.0917 27.308 92.6317 27.22 93.1997 27.22C93.6557 27.22 94.0757 27.272 94.4597 27.376C94.8437 27.48 95.2037 27.624 95.5397 27.808L95.5877 29.284H95.4677L94.8677 28.324C94.7877 28.172 94.6997 28.036 94.6037 27.916C94.5077 27.788 94.3877 27.692 94.2437 27.628C94.1237 27.572 94.0037 27.532 93.8837 27.508C93.7717 27.476 93.6277 27.46 93.4517 27.46C92.9877 27.46 92.5637 27.584 92.1797 27.832C91.8037 28.08 91.4997 28.492 91.2677 29.068C91.0437 29.636 90.9317 30.416 90.9317 31.408C90.9317 32.392 91.0397 33.172 91.2557 33.748C91.4717 34.316 91.7637 34.724 92.1317 34.972C92.5077 35.212 92.9277 35.332 93.3917 35.332C93.6477 35.332 93.8517 35.316 94.0037 35.284C94.1557 35.244 94.3077 35.188 94.4597 35.116C94.6117 35.052 94.7277 34.96 94.8077 34.84C94.8877 34.712 94.9597 34.576 95.0237 34.432L95.5517 33.256H95.6717L95.6357 34.972C95.2997 35.148 94.9237 35.292 94.5077 35.404C94.0917 35.516 93.6357 35.572 93.1397 35.572Z" fill="url(#paint13_linear_0_4)"/>
<path d="M96.2182 35.356V35.236L96.3982 35.188C96.5582 35.14 96.6662 35.068 96.7222 34.972C96.7862 34.876 96.8182 34.752 96.8182 34.6V30.844C96.8182 30.668 96.7862 30.54 96.7222 30.46C96.6662 30.372 96.5582 30.312 96.3982 30.28L96.2182 30.232V30.112L98.2822 29.416L98.4022 29.536L98.5102 30.568V30.664C98.6222 30.44 98.7662 30.236 98.9422 30.052C99.1262 29.86 99.3262 29.704 99.5422 29.584C99.7662 29.464 99.9862 29.404 100.202 29.404C100.506 29.404 100.738 29.488 100.898 29.656C101.058 29.824 101.138 30.036 101.138 30.292C101.138 30.564 101.058 30.776 100.898 30.928C100.746 31.072 100.562 31.144 100.346 31.144C100.01 31.144 99.7142 30.976 99.4582 30.64L99.4342 30.616C99.3542 30.504 99.2622 30.444 99.1582 30.436C99.0542 30.42 98.9582 30.468 98.8702 30.58C98.7902 30.652 98.7222 30.74 98.6662 30.844C98.6182 30.94 98.5702 31.052 98.5222 31.18V34.528C98.5222 34.848 98.6622 35.048 98.9422 35.128L99.3262 35.236V35.356H96.2182Z" fill="url(#paint14_linear_0_4)"/>
<path d="M103.687 35.536C103.375 35.536 103.087 35.476 102.823 35.356C102.567 35.236 102.363 35.044 102.211 34.78C102.067 34.508 101.999 34.152 102.007 33.712L102.043 30.628C102.043 30.444 102.011 30.312 101.947 30.232C101.883 30.152 101.783 30.096 101.647 30.064L101.503 30.016V29.896L103.651 29.476L103.771 29.596L103.711 31.3V34.192C103.711 34.448 103.783 34.636 103.927 34.756C104.079 34.876 104.267 34.936 104.491 34.936C104.715 34.936 104.915 34.904 105.091 34.84C105.267 34.776 105.443 34.68 105.619 34.552L105.667 30.64C105.667 30.456 105.639 30.328 105.583 30.256C105.527 30.176 105.423 30.12 105.271 30.088L105.151 30.052V29.932L107.251 29.476L107.371 29.596L107.335 31.3V34.552C107.335 34.728 107.359 34.864 107.407 34.96C107.455 35.056 107.559 35.136 107.719 35.2L107.839 35.236V35.356L105.739 35.476L105.631 34.768C105.367 34.984 105.079 35.168 104.767 35.32C104.463 35.464 104.103 35.536 103.687 35.536Z" fill="url(#paint15_linear_0_4)"/>
<path d="M109.764 28.78C109.492 28.78 109.26 28.696 109.068 28.528C108.884 28.352 108.792 28.132 108.792 27.868C108.792 27.596 108.884 27.376 109.068 27.208C109.26 27.04 109.492 26.956 109.764 26.956C110.036 26.956 110.264 27.04 110.448 27.208C110.632 27.376 110.724 27.596 110.724 27.868C110.724 28.132 110.632 28.352 110.448 28.528C110.264 28.696 110.036 28.78 109.764 28.78ZM108.348 35.356V35.236L108.516 35.188C108.676 35.14 108.784 35.068 108.84 34.972C108.904 34.876 108.936 34.748 108.936 34.588V30.832C108.936 30.664 108.904 30.54 108.84 30.46C108.784 30.372 108.676 30.312 108.516 30.28L108.348 30.244V30.124L110.544 29.416L110.664 29.536L110.628 31.24V34.6C110.628 34.76 110.656 34.888 110.712 34.984C110.776 35.08 110.884 35.152 111.036 35.2L111.156 35.236V35.356H108.348Z" fill="url(#paint16_linear_0_4)"/>
<path d="M113.763 35.536C113.371 35.536 113.019 35.488 112.707 35.392C112.395 35.304 112.107 35.192 111.843 35.056L111.855 33.628H111.975L112.383 34.348C112.559 34.668 112.751 34.908 112.959 35.068C113.175 35.22 113.447 35.296 113.775 35.296C114.159 35.296 114.467 35.212 114.699 35.044C114.939 34.868 115.059 34.636 115.059 34.348C115.059 34.084 114.975 33.868 114.807 33.7C114.639 33.532 114.327 33.38 113.871 33.244L113.367 33.088C112.879 32.944 112.495 32.72 112.215 32.416C111.935 32.112 111.795 31.74 111.795 31.3C111.795 30.772 112.003 30.324 112.419 29.956C112.835 29.588 113.431 29.404 114.207 29.404C114.519 29.404 114.811 29.44 115.083 29.512C115.363 29.576 115.631 29.676 115.887 29.812L115.815 31.108H115.695L115.275 30.364C115.123 30.1 114.971 29.916 114.819 29.812C114.675 29.7 114.455 29.644 114.159 29.644C113.887 29.644 113.631 29.72 113.391 29.872C113.151 30.024 113.031 30.24 113.031 30.52C113.031 30.792 113.131 31.008 113.331 31.168C113.539 31.328 113.843 31.476 114.243 31.612L114.783 31.768C115.359 31.944 115.771 32.188 116.019 32.5C116.267 32.804 116.391 33.172 116.391 33.604C116.391 34.188 116.159 34.656 115.695 35.008C115.239 35.36 114.595 35.536 113.763 35.536Z" fill="url(#paint17_linear_0_4)"/>
<path d="M119.925 29.404C120.445 29.404 120.889 29.512 121.257 29.728C121.625 29.936 121.906 30.224 122.098 30.592C122.298 30.952 122.397 31.364 122.397 31.828C122.397 31.916 122.393 32.008 122.385 32.104C122.377 32.192 122.362 32.272 122.338 32.344H118.761C118.769 33.208 118.921 33.832 119.217 34.216C119.521 34.592 119.97 34.78 120.562 34.78C120.962 34.78 121.286 34.716 121.534 34.588C121.782 34.46 122.013 34.272 122.229 34.024L122.35 34.132C122.102 34.572 121.77 34.916 121.354 35.164C120.946 35.412 120.454 35.536 119.878 35.536C119.31 35.536 118.806 35.416 118.366 35.176C117.926 34.928 117.582 34.576 117.334 34.12C117.086 33.664 116.962 33.12 116.962 32.488C116.962 31.832 117.106 31.276 117.394 30.82C117.682 30.356 118.049 30.004 118.497 29.764C118.953 29.524 119.429 29.404 119.925 29.404ZM119.89 29.644C119.658 29.644 119.457 29.716 119.289 29.86C119.129 29.996 119.002 30.244 118.906 30.604C118.818 30.956 118.769 31.456 118.761 32.104H120.813C120.893 31.232 120.861 30.604 120.717 30.22C120.573 29.836 120.298 29.644 119.89 29.644Z" fill="url(#paint18_linear_0_4)"/>
</g>
</g>
<defs>
<linearGradient id="paint0_linear_0_4" x1="10.3125" y1="-165" x2="56.8806" y2="-162.089" gradientUnits="userSpaceOnUse">
<stop stop-color="#D4AF37"/>
<stop offset="0.5" stop-color="#F1D279"/>
<stop offset="1" stop-color="#B8860B"/>
</linearGradient>
<linearGradient id="paint1_linear_0_4" x1="10.3125" y1="-165" x2="56.8806" y2="-162.089" gradientUnits="userSpaceOnUse">
<stop stop-color="#D4AF37"/>
<stop offset="0.5" stop-color="#F1D279"/>
<stop offset="1" stop-color="#B8860B"/>
</linearGradient>
<linearGradient id="paint2_linear_0_4" x1="10.3125" y1="-165" x2="56.8806" y2="-162.089" gradientUnits="userSpaceOnUse">
<stop stop-color="#D4AF37"/>
<stop offset="0.5" stop-color="#F1D279"/>
<stop offset="1" stop-color="#B8860B"/>
</linearGradient>
<linearGradient id="paint3_linear_0_4" x1="10.3125" y1="-165" x2="56.8806" y2="-162.089" gradientUnits="userSpaceOnUse">
<stop stop-color="#D4AF37"/>
<stop offset="0.5" stop-color="#F1D279"/>
<stop offset="1" stop-color="#B8860B"/>
</linearGradient>
<linearGradient id="paint4_linear_0_4" x1="10.3125" y1="-165" x2="56.8806" y2="-162.089" gradientUnits="userSpaceOnUse">
<stop stop-color="#D4AF37"/>
<stop offset="0.5" stop-color="#F1D279"/>
<stop offset="1" stop-color="#B8860B"/>
</linearGradient>
<linearGradient id="paint5_linear_0_4" x1="10.3125" y1="-165" x2="56.8806" y2="-162.089" gradientUnits="userSpaceOnUse">
<stop stop-color="#D4AF37"/>
<stop offset="0.5" stop-color="#F1D279"/>
<stop offset="1" stop-color="#B8860B"/>
</linearGradient>
<linearGradient id="paint6_linear_0_4" x1="10.3125" y1="-165" x2="56.8806" y2="-162.089" gradientUnits="userSpaceOnUse">
<stop stop-color="#D4AF37"/>
<stop offset="0.5" stop-color="#F1D279"/>
<stop offset="1" stop-color="#B8860B"/>
</linearGradient>
<linearGradient id="paint7_linear_0_4" x1="66.9682" y1="-5.35404" x2="127.262" y2="26.3101" gradientUnits="userSpaceOnUse">
<stop stop-color="#D4AF37"/>
<stop offset="0.5" stop-color="#F1D279"/>
<stop offset="1" stop-color="#B8860B"/>
</linearGradient>
<linearGradient id="paint8_linear_0_4" x1="66.9682" y1="-5.35404" x2="127.262" y2="26.3101" gradientUnits="userSpaceOnUse">
<stop stop-color="#D4AF37"/>
<stop offset="0.5" stop-color="#F1D279"/>
<stop offset="1" stop-color="#B8860B"/>
</linearGradient>
<linearGradient id="paint9_linear_0_4" x1="66.9682" y1="-5.35404" x2="127.262" y2="26.3101" gradientUnits="userSpaceOnUse">
<stop stop-color="#D4AF37"/>
<stop offset="0.5" stop-color="#F1D279"/>
<stop offset="1" stop-color="#B8860B"/>
</linearGradient>
<linearGradient id="paint10_linear_0_4" x1="66.9682" y1="-5.35404" x2="127.262" y2="26.3101" gradientUnits="userSpaceOnUse">
<stop stop-color="#D4AF37"/>
<stop offset="0.5" stop-color="#F1D279"/>
<stop offset="1" stop-color="#B8860B"/>
</linearGradient>
<linearGradient id="paint11_linear_0_4" x1="66.9682" y1="-5.35404" x2="127.262" y2="26.3101" gradientUnits="userSpaceOnUse">
<stop stop-color="#D4AF37"/>
<stop offset="0.5" stop-color="#F1D279"/>
<stop offset="1" stop-color="#B8860B"/>
</linearGradient>
<linearGradient id="paint12_linear_0_4" x1="66.9682" y1="-5.35404" x2="127.262" y2="26.3101" gradientUnits="userSpaceOnUse">
<stop stop-color="#D4AF37"/>
<stop offset="0.5" stop-color="#F1D279"/>
<stop offset="1" stop-color="#B8860B"/>
</linearGradient>
<linearGradient id="paint13_linear_0_4" x1="66.9682" y1="-5.35404" x2="127.262" y2="26.3101" gradientUnits="userSpaceOnUse">
<stop stop-color="#D4AF37"/>
<stop offset="0.5" stop-color="#F1D279"/>
<stop offset="1" stop-color="#B8860B"/>
</linearGradient>
<linearGradient id="paint14_linear_0_4" x1="66.9682" y1="-5.35404" x2="127.262" y2="26.3101" gradientUnits="userSpaceOnUse">
<stop stop-color="#D4AF37"/>
<stop offset="0.5" stop-color="#F1D279"/>
<stop offset="1" stop-color="#B8860B"/>
</linearGradient>
<linearGradient id="paint15_linear_0_4" x1="66.9682" y1="-5.35404" x2="127.262" y2="26.3101" gradientUnits="userSpaceOnUse">
<stop stop-color="#D4AF37"/>
<stop offset="0.5" stop-color="#F1D279"/>
<stop offset="1" stop-color="#B8860B"/>
</linearGradient>
<linearGradient id="paint16_linear_0_4" x1="66.9682" y1="-5.35404" x2="127.262" y2="26.3101" gradientUnits="userSpaceOnUse">
<stop stop-color="#D4AF37"/>
<stop offset="0.5" stop-color="#F1D279"/>
<stop offset="1" stop-color="#B8860B"/>
</linearGradient>
<linearGradient id="paint17_linear_0_4" x1="66.9682" y1="-5.35404" x2="127.262" y2="26.3101" gradientUnits="userSpaceOnUse">
<stop stop-color="#D4AF37"/>
<stop offset="0.5" stop-color="#F1D279"/>
<stop offset="1" stop-color="#B8860B"/>
</linearGradient>
<linearGradient id="paint18_linear_0_4" x1="66.9682" y1="-5.35404" x2="127.262" y2="26.3101" gradientUnits="userSpaceOnUse">
<stop stop-color="#D4AF37"/>
<stop offset="0.5" stop-color="#F1D279"/>
<stop offset="1" stop-color="#B8860B"/>
</linearGradient>
</defs>
</svg>
