<svg preserveAspectRatio="none" width="100%" height="100%" overflow="visible" style="display: block;" viewBox="0 0 48 48" fill="none" xmlns="http://www.w3.org/2000/svg">
<g id="Vector">
<path d="M47 24C47 11.2975 36.7025 1 24 1C11.2975 1 1 11.2975 1 24C1 36.7025 11.2975 47 24 47V48C10.7452 48 0 37.2548 0 24C0 10.7452 10.7452 0 24 0C37.2548 0 48 10.7452 48 24C48 37.2548 37.2548 48 24 48V47C36.7025 47 47 36.7025 47 24Z" fill="var(--fill-0, #C5A059)"/>
<path d="M20.2909 35L18.2182 31.4952L14.2909 30.619L14.6727 26.5667L12 23.5L14.6727 20.4333L14.2909 16.381L18.2182 15.5048L20.2909 12L24 13.5881L27.7091 12L29.7818 15.5048L33.7091 16.381L33.3273 20.4333L36 23.5L33.3273 26.5667L33.7091 30.619L29.7818 31.4952L27.7091 35L24 33.4119L20.2909 35ZM21.2182 32.2071L24 31.0024L26.8364 32.2071L28.3636 29.5786L31.3636 28.8667L31.0909 25.8L33.1091 23.5L31.0909 21.1452L31.3636 18.0786L28.3636 17.4214L26.7818 14.7929L24 15.9976L21.1636 14.7929L19.6364 17.4214L16.6364 18.0786L16.9091 21.1452L14.8909 23.5L16.9091 25.8L16.6364 28.9214L19.6364 29.5786L21.2182 32.2071ZM22.8545 27.3881L29.0182 21.2L27.4909 19.6119L22.8545 24.2667L20.5091 21.9667L18.9818 23.5L22.8545 27.3881Z" fill="var(--fill-0, #C5A059)"/>
</g>
</svg>
