<svg preserveAspectRatio="none" width="100%" height="100%" overflow="visible" style="display: block;" viewBox="0 0 32 32" fill="none" xmlns="http://www.w3.org/2000/svg">
<g id="ic-catamaran">
<g id="Vector">
<path d="M4.93932 8.39058C4.84351 7.56519 5.48575 6.83185 6.39747 6.83334H16.7364C17.5987 6.83334 18.2604 7.49987 18.199 8.28368L4.93932 8.39058Z" fill="var(--fill-0, #434D65)"/>
<path d="M18.3763 13.3131L13.0706 14.5348C9.80104 15.2429 6.52394 15.3691 2.87425 15.1835L2.10028 11.349C1.87422 10.3886 2.68562 9.39249 3.68268 9.41476L18.375 9.42664V13.3143L18.3763 13.3131ZM8.66938 12.8232C9.77571 12.8009 9.78169 11.1724 8.66938 11.1546C7.56455 11.1725 7.56903 12.8039 8.66938 12.8232ZM5.16624 12.8232C6.26659 12.8024 6.27107 11.1709 5.16624 11.1546C4.06141 11.1725 4.06589 12.8039 5.16624 12.8232Z" fill="var(--fill-0, #434D65)"/>
<path d="M0.0972227 16.3207C0.227466 16.1262 0.459511 16.0312 0.691565 16.0787C3.5285 16.6369 7.0152 16.4572 9.97197 16.2197C12.7041 16 27.5057 12.4418 30.175 11.827C31.6646 11.5583 32.5014 13.0977 31.6736 14.3046C26.9489 15.2324 15.8408 17.8954 10.8585 18.4492C10.2552 17.076 8.0919 17.1784 7.6338 18.6139C4.82829 18.6867 3.12179 18.6867 1.1561 18.5189L0.0976804 16.9617C-0.0325633 16.7672 -0.0325633 16.5134 0.0976804 16.3189L0.0972227 16.3207Z" fill="var(--fill-0, #434D65)"/>
<path d="M7.64533 19.7945C7.88936 20.4492 8.5316 20.9212 9.27564 20.9212C10.0841 20.9212 10.7682 20.3719 10.9643 19.6297C15.5499 19.1473 31.001 15.2829 31.001 15.2829L27.8242 21.6648C27.0817 23.1878 25.4768 24.178 23.7733 24.1661H8.38194C5.33242 24.2047 3.43265 22.2036 2.00006 19.7661C2.94623 19.8315 6.62742 19.8255 7.64533 19.7958V19.7945Z" fill="var(--fill-0, #434D65)"/>
<path d="M19.0613 13.2938V9.49962C21.2785 9.38752 23.3291 10.8391 23.276 12.5478C22.6422 12.6637 19.0613 13.2919 19.0613 13.2919V13.2938Z" fill="var(--fill-0, #434D65)"/>
<path d="M20.7732 20.5397C21.5098 20.5516 21.5053 21.6308 20.7732 21.6427C20.0486 21.6264 20.0426 20.5546 20.7732 20.5397Z" fill="var(--fill-0, #434D65)"/>
</g>
</g>
</svg>
